<svg xmlns="http://www.w3.org/2000/svg" viewBox="0 0 32 32">
  <defs>
    <linearGradient id="g" x1="0" y1="0" x2="1" y2="1">
      <stop offset="0%" stop-color="#8b5cf6"/>
      <stop offset="100%" stop-color="#6366f1"/>
    </linearGradient>
  </defs>
  <rect width="32" height="32" rx="7" fill="url(#g)"/>
  <path fill="white" d="M22 9h-3.59l1.29-1.29L19 7l-3 3-3-3-.71.71L13.59 9H10c-1.1 0-2 .89-2 2v10c0 1.1.9 2 2 2h12c1.1 0 2-.9 2-2V11c0-1.11-.9-2-2-2zm0 12H10V11h12v10zM14 14v6l5-3z"/>
</svg>
